<?xml version="1.0" encoding="utf-8"?>
<!-- Generator: Adobe Illustrator 25.4.1, SVG Export Plug-In . SVG Version: 6.00 Build 0)  -->
<svg version="1.1" id="Built_on_SurrealDB" xmlns="http://www.w3.org/2000/svg" x="0px"
	 y="0px" viewBox="0 0 4556.4 1284.3" style="enable-background:new 0 0 4556.4 1284.3;" xml:space="preserve">
<style type="text/css">
	.st0{fill:url(#DB_00000106827400301191982010000009990759261597149629_);}
	.st1{fill:#FFFFFF;}
	.st2{fill:url(#Icon_00000124867099685196654710000013531881757439943341_);}
	.st3{fill:#6A7389;}
</style>
	<g id="SurrealDB_00000138551226888156890820000007189919268752946612_">
	
		<linearGradient id="DB_00000129885847956821926560000003605688004534085258_" gradientUnits="userSpaceOnUse"
						x1="3824.8174" y1="-744.9851" x2="4261.3765" y2="11.1576"
						gradientTransform="matrix(1 0 0 1 0 1156)">
		<stop offset="0" style="stop-color:#FF00A0"/>
			<stop offset="1" style="stop-color:#9600FF"/>
	</linearGradient>
		<path id="DB" style="fill:url(#DB_00000129885847956821926560000003605688004534085258_);" d="M4485.7,775.1
		c84.8-64.3,39.6-206-52.6-238.2c-20.4-8-41.4-11.8-64.3-11.8h-221.5v536.4c13,0,251.2,0,251.2,0c42.7,0,83.5-15.5,113.2-43.9
		C4578.5,953.9,4571,822.8,4485.7,775.1z M4254.9,633.5h110.7c28.5,0,52.6,20.4,51.3,50.1c1.2,28.5-22.9,52.6-51.3,51.3h-110.7
		V633.5z M4392.9,955.2h-138V838.9h138c28.5-1.2,52.6,30.9,51.3,59.4C4444.8,925.5,4421.3,956.4,4392.9,955.2z M3937.6,545.6
		c-33.4-13-69.9-20.4-110.7-20.4H3627v536.4h199.8c42.7,0,81-6.8,114.4-20.4c102.1-39.6,159.6-140.4,158.4-248.7
		C4100.9,684.8,4040.3,584.6,3937.6,545.6z M3985.2,794.3c1.2,84.8-69.3,162.1-154.7,160.8h-97.7V634.1h97.7
		C3916.5,632.2,3986.4,710.8,3985.2,794.3z"/>
		<g id="Surreal">
		<path id="l" class="st1" d="M3472.4,525.2v536.4h107V525.2H3472.4z"/>
			<path id="a" class="st1" d="M3216.2,653.9c-115.1,0-207.9,91.6-207.9,204.1s92.8,204.1,207.9,204.1c36.5,0,71.1-9.3,100.8-26v26
			h107V858C3424.1,745.4,3331.9,653.9,3216.2,653.9z M3215.6,963.8c-60.6,0-108.3-47.6-108.3-107c0-58.2,48.9-107,108.3-107
			c60.6,0,108.3,47.6,108.3,107C3323.3,916.2,3274.4,963.8,3215.6,963.8z"/>
			<path id="e" class="st1" d="M2751,653.9c123.7-3.7,232,115.1,205.4,241.3h-304.4c28.5,78.6,131.8,95.3,180.6,28.5H2949
			c-48.9,144.8-242.5,184.4-347.1,78.6C2468.3,870.4,2569.2,652.7,2751,653.9z M2850,821.5c-35.9-92.8-161.5-92.8-197.3,0H2850z"/>
			<path id="r" class="st1" d="M2517.2,653.9c-91.6,0-172.6,59.4-199.8,146c-6.2,20.4-9.3,41.4-9.3,63.1v198.6h107
			c0,0,0-190.5,0-198.6c2.5-71.1,52.6-107,102.1-107V653.9z"/>
			<path id="r_00000093863150956384291220000002169458381189141395_" class="st1" d="M2284,653.9c-91.6,0-172.6,59.4-199.8,146
			c-6.2,20.4-9.3,41.4-9.3,63.1v198.6h107c0,0,0-190.5,0-198.6c2.5-71.1,52.6-107,102.1-107V653.9z"/>
			<path id="u" class="st1" d="M1919,653.9v198.6c-6.2,141.7-199.8,141.7-204.8,0V653.9h-107v198.6c0,21.7,3.7,42.7,9.3,63.1
			c27.2,86.6,108.3,146,199.8,146s173.2-59.4,200.4-146c6.2-20.4,9.3-41.4,9.3-63.1V653.9C2026,653.9,1919,653.9,1919,653.9z"/>
			<path id="S" class="st1" d="M1412.3,748.5c-45.2-6.8-99-15.5-134.2-43.9c-22.9-17.9-13-46.4,10.5-61.9
			c46.4-29.7,123.7-13,139.2,41.4H1549c0-97.1-104.5-160.2-202.3-159c-54.4,0-105.8,13-144.8,45.2c-47.6,37.7-71.1,110.7-41.4,163.9
			c48.9,79.8,166.4,78.6,246.2,110.1c21.7,10.5,34.6,22.9,34.6,45.2c0,48.9-43.9,68.7-94,68.7c-47.6,1.2-82.9-34.6-87.8-78.6h-118.8
			c3.7,172.6,232.6,233.8,362.5,131.8c36.5-30.9,56.9-74.9,56.9-122.5C1560.8,812.9,1487.2,760.9,1412.3,748.5z"/>
	</g>

		<linearGradient id="Icon_00000079467304732018004700000002277740430920270010_" gradientUnits="userSpaceOnUse"
						x1="203.3332" y1="2988.3157" x2="636.7638" y2="2237.5913"
						gradientTransform="matrix(1 0 0 -1 0 3407.272)">
		<stop offset="0" style="stop-color:#FF00A0"/>
			<stop offset="1" style="stop-color:#9600FF"/>
	</linearGradient>
		<path id="Icon" style="fill:url(#Icon_00000079467304732018004700000002277740430920270010_);" d="M420,562.3l233.2,129.3v-52
		L420,510.4c-34.6,19.2-202.3,112-233.2,128.7c28.5,16.1,330.3,182.5,513.5,283.3v51.3C675.5,987.3,420,1128.4,420,1128.4
		c-69.9-38.4-210.3-116.3-280.2-154.7V819.1L420,973.7l46.4-26l-373.7-206v258l326.6,180.6c32.2-17.9,302.5-167,326.6-180.6V896.4
		l-466.4-258L420,562.3z M93.4,587.7V691l466.4,258L420,1026.3L186.8,897v52L420,1077.7c34.6-19.2,202.3-112,233.2-128.7
		c-28.5-16.1-329.7-182.5-513.5-284v-51.3C164.6,600.1,420,459,420,459c69.9,38.4,210.3,116.3,280.2,154.7v154.7L420,613.7l-46.4,26
		l373,206v-258L420,407.7C387.9,425.6,116.9,574.7,93.4,587.7z M420,304.4L0,536.4v515.9l420,232l420-232V536.4L420,304.4z
		 M793.1,1026.3l-373,206l-373.7-206v-464l373-206l373,206L793.1,1026.3z"/>
</g>
	<g id="Built_on">
	<path class="st3" d="M120,110.1c6.8,9.3,9.9,19.2,9.9,30.9c0,9.9-2.5,18.6-6.8,26.6c-4.9,8-11.8,14.2-20.4,18.6S83.5,193,71.8,193
		H0V0h68c12.4,0,22.9,2.5,31.6,6.8s15.5,10.5,19.8,17.9c4.3,7.4,6.8,15.5,6.8,24.7c0,11.1-2.5,20.4-8,27.8s-13,13-22.3,16.1
		C105.2,95.9,113.8,101.5,120,110.1z M29.1,81h36.5c9.9,0,17.3-2.5,22.3-6.8c5.6-4.9,8-11.8,8-20.4s-2.5-15.5-8-20.4
		c-5.6-4.9-13-7.4-22.3-7.4H29.1V81z M92.2,159.6c5.6-4.9,8.7-12.4,8.7-21.7c0-9.3-3.1-16.7-9.3-22.3s-14.2-8-24.1-8H29.1V167h39.6
		C79.2,167,86.6,164.6,92.2,159.6z"/>
		<path class="st3" d="M290.8,46.4v144.8h-29.1v-17.3c-4.3,6.2-10.5,10.5-17.9,14.2s-15.5,4.9-24.1,4.9c-11.1,0-21-2.5-30.3-6.8
		c-8.7-4.9-16.1-11.8-21-21s-7.4-20.4-7.4-33.4V46.4h29.1v80.4c0,13,3.1,22.9,9.3,29.7s14.8,10.5,26,10.5s19.8-3.7,26-10.5
		c6.2-6.8,9.9-16.7,9.9-29.7V46.4H290.8z"/>
		<path class="st3" d="M333.4,25.4c-3.1-3.1-4.3-6.2-4.3-10.5s1.2-7.4,4.3-10.5S340.2,0,344,0c4.3,0,7.4,1.2,10.5,4.3
		s4.3,6.2,4.3,10.5s-1.2,7.4-4.3,10.5s-6.2,4.3-10.5,4.3C340.2,29.7,336.5,28.5,333.4,25.4z"/>
		<rect x="329.7" y="46.4" class="st3" width="29.1" height="146.6"/>
		<path class="st3" d="M426.9,0v193h-29.1V0H426.9z"/>
		<path class="st3" d="M499.9,153.4c0,5.6,1.2,9.3,3.7,11.8c2.5,2.5,6.8,3.7,13,3.7h17.9v24.7h-22.9c-13,0-23.5-3.1-30.3-9.3
		s-10.5-16.1-10.5-30.3v-138h29.7v137.3C500.5,153.4,499.9,153.4,499.9,153.4z"/>
		<path class="st3" d="M653.3,183.7c-11.1-6.2-19.2-14.8-25.4-26c-6.2-11.1-9.3-24.1-9.3-38.4s3.1-27.2,9.3-38.4s14.8-19.8,26-26
		s23.5-9.3,37.1-9.3s26,3.1,37.1,9.3s19.8,14.8,26,26s9.3,24.1,9.3,38.4s-3.1,27.2-9.9,38.4c-6.8,11.1-15.5,19.8-26.6,26
		c-11.1,6.2-23.5,9.3-37.1,9.3C676.2,193,664.4,189.9,653.3,183.7z M710.8,162.1c6.8-3.7,11.8-9.3,16.1-16.1
		c4.3-7.4,6.2-16.1,6.2-26s-1.9-19.2-6.2-26c-4.3-6.8-9.3-12.4-15.5-16.1c-6.8-3.7-13.6-5.6-21-5.6s-14.8,1.9-21,5.6
		c-6.2,3.7-11.8,9.3-15.5,16.1c-3.7,7.4-5.6,16.1-5.6,26c0,15.5,3.7,27.2,11.8,35.3c8,8,17.9,12.4,29.7,12.4
		C697.2,167.6,704.6,165.8,710.8,162.1z"/>
		<path class="st3" d="M893.9,53.2c8.7,4.9,15.5,11.8,21,21c4.9,9.3,7.4,20.4,7.4,33.4v84.8h-29.1V112c0-13-3.1-22.9-9.3-29.7
		s-14.8-10.5-26-10.5s-19.8,3.7-26,10.5s-9.9,16.7-9.9,29.7v80.4h-29.1V48.9h29.1v16.7c4.9-6.2,11.1-10.5,18.6-13.6
		s15.5-4.9,24.1-4.9C875.4,46.4,885.3,48.9,893.9,53.2z"/>
		<rect x="453.5" y="46.4" class="st3" width="81" height="24.1"/>
</g>
</svg>
